<svg version="1.1" id="Layer_1" xmlns="http://www.w3.org/2000/svg" x="0" y="0" viewBox="0 0 513.3 68.1" style="enable-background:new 0 0 513.3 68.1" xml:space="preserve">
  <style>
    .st0{fill-rule:evenodd;clip-rule:evenodd}
  </style>
  <path d="M27 24.5H13.2c-.4 0-.8 0-1.1.1-.3.1-.6.2-.9.4-.3.2-.5.5-.7.7-.2.3-.2.6-.2 1v15.1c0 .8.3 1.4 1 1.9.2.2.5.3.7.4.3.1.6.1 1 .1h13.9v10.3h-17c-1.7 0-3-.2-4-.5-1.3-.4-2.4-1.1-3.4-2-.9-1-1.6-2-2-3-.3-1-.5-2.2-.5-3.7V23.7c0-1.4.2-2.7.5-3.7.4-1 1.1-2 2.1-3s2.1-1.7 3.2-2.1c1.1-.4 2.5-.5 4.2-.5h17v10.1z"/>
  <path class="st0" d="M67.6 45c0 1.8-.2 3.2-.5 4.1-.3 1-1.3 2.1-2.9 3.5-1 .9-2.3 1.5-3.7 1.7-.8.1-2.2.2-4.2.2H44c-1.7 0-3.1-.2-4.1-.5-1.3-.4-2.4-1.1-3.3-2-.9-1-1.6-2-2-3-.4-1-.5-2.3-.5-3.7V23.7c0-1.5.2-2.7.5-3.7.4-1 1.1-2 2.1-3s2.1-1.7 3.2-2.1c1.1-.4 2.5-.5 4.2-.5h12.6c1.7 0 3.3.2 4.8.7 1.5.4 2.6 1 3.2 1.8 1 1.2 1.8 2.3 2.2 3.4.5 1.1.7 2.4.7 3.8V45zm-10.5-3.2v-15c0-.7-.2-1.3-.7-1.7-.5-.4-1-.7-1.6-.7h-7.5c-.4 0-.8 0-1.1.1-.3.1-.6.2-.9.4-.7.5-1 1.1-1 1.8v15.1c0 .8.3 1.4.9 1.9.2.2.5.3.7.4.3.1.6.1 1 .1H54c.5 0 .9 0 1.2-.1.3-.1.6-.2.9-.5.7-.4 1-1 1-1.8z"/>
  <path d="M107.5 54.6H97V26.9c0-.7-.3-1.3-.8-1.7-.5-.4-1-.7-1.6-.7h-7.5c-.4 0-.8 0-1.1.1-.3.1-.6.2-.9.4-.6.5-.9 1.1-.9 1.8v27.8H74.1V23.7c0-1.4.2-2.7.5-3.7.4-1 1-2.1 2-3.1s2-1.7 3.1-2c1.1-.4 2.5-.5 4.2-.5h12.6c1.7 0 3.3.2 4.8.7 1.5.4 2.6 1 3.3 1.8 1 1.2 1.7 2.3 2.2 3.3.5 1.1.7 2.3.7 3.8v30.6zM144.8 44c0 1.9-.2 3.4-.5 4.5-.4 1.3-1.3 2.6-2.5 3.6-1 .9-2.1 1.5-3.2 1.9-1.1.3-2.4.5-3.9.5h-20.3V44.3h18.1c.6 0 1.1-.2 1.5-.7.4-.5.6-1.1.6-1.8s-.2-1.3-.6-1.8c-.4-.5-.9-.8-1.5-.8h-9.2c-2.3 0-4.4-.8-6.1-2.5-1-1-1.7-2-2.1-3.2-.4-1.2-.6-2.6-.6-4.1v-5.9c0-1.4.2-2.7.6-3.7.4-1.1 1.1-2.1 2.1-2.9 1-.9 1.9-1.6 2.9-1.9 1-.4 2.2-.5 3.5-.5h21.1v10h-18c-.6 0-1.1.2-1.5.7-.4.5-.6 1.1-.6 1.7 0 .6.2 1.2.7 1.6.4.4 1 .7 1.6.7h8.6c1.6 0 3 .2 4.1.7 1.2.5 2.2 1.3 3.2 2.5.8 1 1.4 1.9 1.7 2.9.3.9.5 2 .5 3.4V44h-.2zM185 45.1c0 1.4-.2 2.7-.5 3.7s-1 2.1-2 3.1c-.9 1-2 1.6-3.2 2-1.2.4-2.5.6-4.1.6h-12.6c-1.7 0-3.3-.2-4.8-.7-1.5-.5-2.6-1.1-3.3-1.8-1-1.2-1.8-2.3-2.2-3.3-.4-1.1-.7-2.3-.7-3.8V14.3H162V42c0 .7.2 1.2.7 1.7.5.4 1 .7 1.6.7h8.7c.2-.1.5-.2.8-.5.6-.5.9-1.1.9-1.8V14.3H185v30.8zM241.8 54.5h-10.2V26.8c0-.7-.2-1.3-.7-1.7-.4-.4-1-.7-1.6-.7h-4.4c-.5 0-1 0-1.3.1-.3.1-.5.2-.9.5-.5.5-.8 1-.8 1.6v27.8h-10.3V26.7c0-.4 0-.8-.1-1.1-.1-.3-.2-.5-.5-.7-.4-.4-1-.6-1.6-.6h-4.5c-.5 0-.9 0-1.1.1-.3.1-.5.2-.8.4-.6.4-.9.9-.9 1.6v28h-10.2v-30c0-1.7.2-3.1.5-4.2s1-2.2 2-3.2 2.1-1.7 3.2-2.1c1.1-.4 2.5-.6 4.1-.6h7.5c1.2 0 2.2.1 3.1.3.9.2 1.7.5 2.4 1.1.4.3.7.5 1 .8.3.3.7.6 1.1 1.1.8-.9 1.7-1.7 2.7-2.2.8-.4 1.5-.7 2.2-.8.7-.2 1.5-.2 2.5-.2h8c1.5 0 2.9.2 4.2.7 1.3.4 2.2 1 2.9 1.7.9 1.1 1.6 2.2 2 3.3.4 1.1.6 2.4.6 3.9v30.5h-.1z"/>
  <path class="st0" d="M281.8 32.6 259.1 41v2c0 .5.1.9.3 1.1.2.2.6.3 1.1.3h20.9v10.1h-23.8c-1.3 0-2.4-.2-3.4-.5-1-.4-1.9-1-2.9-1.8-.9-.8-1.6-1.8-2-2.9-.4-1.1-.7-3-.7-5.7V24.4c0-1.7.2-3.2.6-4.4.4-1.2 1.1-2.3 2.2-3.2 1.1-.9 2.2-1.6 3.5-1.9 1.2-.4 2.6-.5 4.3-.5H272c1.7 0 3.1.2 4.2.5s2.1 1 3.1 2.1c.9.9 1.5 1.9 1.9 2.9.4 1 .6 2.2.6 3.6v9.1zm-10.3-6v-.7c0-.5-.2-.9-.7-1.2-.2-.1-.3-.2-.5-.2-.4-.2-1-.2-1.7-.2h-6.7c-.4 0-.7 0-1 .1-.3.1-.6.2-.8.5-.5.5-.8 1.1-.8 1.8v4.6l12.2-4.7zM301.2 21.7c0 1.7-.6 3.2-1.8 4.5-1.2 1.3-2.7 1.9-4.4 1.9-1.8 0-3.4-.6-4.7-1.8-1.3-1.2-1.9-2.7-1.9-4.4 0-1.8.6-3.4 1.9-4.7 1.3-1.3 2.8-2 4.6-2 1.8 0 3.3.6 4.5 1.9 1.1 1.3 1.8 2.8 1.8 4.6zm0 27.3c0 1.7-.6 3.2-1.9 4.5-1.2 1.3-2.7 1.9-4.4 1.9-1.8 0-3.4-.6-4.7-1.8-1.3-1.2-1.9-2.7-1.9-4.5 0-1.8.6-3.4 1.9-4.7 1.3-1.3 2.8-2 4.6-2 1.8 0 3.2.6 4.5 1.9 1.2 1.4 1.9 2.9 1.9 4.7zM342.2 45.1c0 1-.2 2-.6 3.2-.5 1.4-1.2 2.5-2.1 3.5-.9.9-2.1 1.6-3.7 2.2-1.2.4-2.1.6-2.9.6h-15.5c-.8 0-1.8-.2-2.9-.5-1.5-.5-2.7-1.2-3.7-2.2-.9-1-1.6-2.1-2.1-3.3-.4-1.3-.7-2.4-.7-3.4V22.6c0-.9.2-2 .7-3.3.5-1.3 1.2-2.4 2-3.3.7-.7 1.6-1.3 2.7-1.8 1.4-.6 2.7-.9 3.9-.9h22.3V0h2.6v45.1zm-2.6-1.5V15.7h-21.5c-.9 0-1.8.1-2.7.4-1.1.4-2.1 1-2.8 1.8-.9.9-1.4 2-1.7 3.1-.2.7-.3 1.7-.3 2.9v19.6c0 1.2.1 2.2.3 2.9.3 1.1.9 2.2 1.7 3.1.8.8 1.7 1.4 2.8 1.8.9.3 1.8.4 2.7.4H332c.9 0 1.8-.1 2.7-.4 1.1-.4 2.1-1 2.8-1.8.9-.9 1.4-2 1.7-3.1.3-.5.4-1.5.4-2.8zM382.6 54.5h-24.8c-.8 0-1.8-.2-2.9-.5-1.5-.5-2.7-1.2-3.7-2.2-.9-1-1.6-2.1-2.1-3.3-.4-1.3-.7-2.4-.7-3.4V22.6c0-.9.2-2 .7-3.3.5-1.3 1.2-2.4 2-3.3.7-.7 1.6-1.3 2.7-1.8 1.4-.6 2.7-.9 3.9-.9h15.5c.8 0 1.8.2 2.9.5 1.5.5 2.7 1.2 3.7 2.2.9.9 1.6 2.1 2.1 3.5.4 1.2.6 2.2.6 3.2v4.6L351 40.7v2.9c0 1.2.1 2.2.3 2.9.3 1.1.9 2.2 1.7 3.1.8.8 1.7 1.4 2.8 1.8.9.3 1.8.4 2.8.4h24v2.7zM380 25.4V24c0-1.2-.1-2.2-.3-2.9-.3-1.1-.9-2.2-1.7-3.1-.7-.8-1.6-1.4-2.6-1.7-1-.4-2-.5-2.9-.5h-13.9c-.9 0-1.8.1-2.7.4-1.1.4-2.1 1-2.8 1.8-.9.9-1.4 2-1.7 3.1-.2.7-.3 1.7-.3 2.9v14L380 25.4z"/>
  <path d="M419.2 45.1c0 1.1-.2 2.3-.7 3.5-.4 1.2-1.1 2.3-2 3.2-.9.9-2.1 1.7-3.7 2.2-1.2.4-2.3.6-3.3.6h-20.7V52h20.3c.9 0 1.8-.2 2.7-.5 1.1-.4 2-1 2.8-1.7.8-.8 1.3-1.7 1.7-2.9.2-.8.4-1.6.4-2.4v-1.6c0-1.1-.2-2.2-.6-3.1-.4-1-.9-1.7-1.5-2.3-.6-.6-1.5-1.1-2.6-1.5-1.1-.4-2-.6-2.8-.6h-10.9c-.9 0-2-.2-3.2-.7-1.4-.5-2.5-1.2-3.5-2.1-.9-.9-1.6-2-2-3.1-.4-1.2-.7-2.3-.7-3.5v-3.3c0-1.2.2-2.3.5-3.3.4-1.2 1.2-2.3 2.2-3.3 1-1 2.3-1.7 3.7-2.2 1.2-.4 2.1-.6 2.9-.6h21v2.6h-20.3c-.9 0-1.9.2-3.1.5-1.2.3-2 .8-2.6 1.5-.8.9-1.4 1.9-1.6 2.9-.1.5-.2 1.4-.2 2.5v2c0 1 .1 1.9.3 2.6.3 1 .9 2 1.7 2.9.8.8 1.8 1.4 2.8 1.7.6.2 1.3.3 2.1.3h11.6c1.1 0 2.2.2 3.5.7 1.2.5 2.3 1.2 3.2 2.1.9.9 1.6 1.9 2 3.1.4 1.2.7 2.4.7 3.5v2.9h-.1z"/>
  <path class="st0" d="M429 9.5c-.5 0-.9-.2-1.1-.5-.3-.3-.4-.7-.4-1.1 0-.4.1-.7.4-1 .3-.3.6-.4 1.1-.4.5 0 .9.2 1.1.5.3.3.4.7.4 1.1 0 .4-.1.7-.4 1-.3.3-.7.4-1.1.4zm1.2 45h-2.6V13.2h2.6v41.3zM473 58.7c0 1-.2 2.1-.6 3.2-.5 1.4-1.2 2.5-2.1 3.5-.7.7-1.6 1.3-2.7 1.8-1.4.6-2.7.9-3.9.9h-24.8v-2.6H463c1 0 1.9-.1 2.7-.4 1.1-.4 2.1-1 2.9-1.9.8-.9 1.4-1.9 1.6-3.1.2-.8.3-1.8.3-3v-2.7h-22.2c-.8 0-1.8-.2-2.9-.5-1.5-.5-2.7-1.2-3.7-2.2-.9-.9-1.6-2.1-2.1-3.3-.5-1.3-.7-2.4-.7-3.4V22.6c0-1 .2-2.1.7-3.3.5-1.3 1.2-2.4 2.1-3.3.7-.7 1.6-1.3 2.7-1.8 1.4-.6 2.7-.9 3.9-.9h15.5c.8 0 1.8.2 2.9.5 1.5.5 2.7 1.2 3.6 2.2.9.9 1.6 2.1 2.2 3.5.4 1.2.7 2.3.7 3.2v36h-.2zm-2.6-6.8V24c0-1.4-.1-2.4-.2-3-.3-1.2-.8-2.2-1.6-3.1-.7-.8-1.7-1.4-2.9-1.8-.9-.3-1.8-.4-2.7-.4h-14c-1 0-2 .1-2.7.4-1.1.3-2.1 1-2.9 1.9-.8.9-1.3 1.9-1.6 3.1-.2.8-.3 1.8-.3 3v19.6c0 1.6.2 2.8.5 3.7.3.9.9 1.7 1.6 2.5.7.8 1.6 1.4 2.7 1.7.8.3 1.7.4 2.7.4h21.4v-.1z"/>
  <path d="M513.3 54.5h-2.6V24.2c0-1.5-.2-2.7-.5-3.8-.3-1.1-.8-2-1.6-2.7-.7-.7-1.6-1.2-2.6-1.5-1-.3-2.1-.4-3.3-.4h-13.3c-1.4 0-2.6.2-3.5.5-.9.3-1.7.8-2.4 1.5s-1.2 1.7-1.5 2.8c-.3 1.1-.5 2.1-.5 3.1v30.9h-2.6v-30c0-2.3.3-4.1.9-5.6.5-1.2 1.2-2.3 2.1-3.1.9-.8 2.1-1.5 3.5-2s2.9-.7 4.5-.7H502c1.8 0 3.2.1 4.2.3 2 .4 3.5 1.2 4.6 2.4 1 1.2 1.8 2.6 2.2 4.2.3 1.1.4 2.4.4 4v30.4h-.1z"/>
</svg>
